<?xml version="1.0" encoding="utf-8"?>
<svg width="6px" height="10px" viewBox="0 0 6 10" version="1.1" xmlns:xlink="http://www.w3.org/1999/xlink" xmlns="http://www.w3.org/2000/svg">
  <desc>Created with Lunacy</desc>
  <g id="facebook-logo-copy">
    <path d="M5.77406 0.00208067L4.33493 0C2.71812 0 1.67327 0.96595 1.67327 2.46101L1.67327 3.59571L0.226289 3.59571C0.101253 3.59571 0 3.68705 0 3.79972L0 5.44375C0 5.55642 0.101368 5.64766 0.226289 5.64766L1.67327 5.64766L1.67327 9.79609C1.67327 9.90876 1.77452 10 1.89956 10L3.78745 10C3.91249 10 4.01374 9.90866 4.01374 9.79609L4.01374 5.64766L5.70559 5.64766C5.83063 5.64766 5.93188 5.55642 5.93188 5.44375L5.93258 3.79972C5.93258 3.74562 5.90868 3.69381 5.8663 3.65552C5.82393 3.61724 5.76621 3.59571 5.70617 3.59571L4.01374 3.59571L4.01374 2.63381C4.01374 2.17149 4.136 1.93679 4.80436 1.93679L5.77383 1.93648C5.89875 1.93648 6 1.84514 6 1.73257L6 0.205986C6 0.093526 5.89886 0.00228873 5.77406 0.00208067Z" id="Shape" fill="#F45A8C" fill-rule="evenodd" stroke="none" />
  </g>
</svg>