<?xml version="1.0" encoding="utf-8"?>
<svg width="17px" height="17px" viewBox="0 0 17 17" version="1.1" xmlns:xlink="http://www.w3.org/1999/xlink" xmlns="http://www.w3.org/2000/svg">
  <desc>Created with Lunacy</desc>
  <path d="M15.1522 0L1.84783 0C0.828995 0 0 0.828995 0 1.84783L0 15.1522C0 16.171 0.828995 17 1.84783 17L15.1522 17C16.171 17 17 16.171 17 15.1522L17 1.84783C17 0.828995 16.171 0 15.1522 0ZM7.76078 11.087L5.17383 11.087L5.17383 8.86959L7.76078 8.86959C7.96469 8.86959 8.13035 8.70394 8.13035 8.50003L8.13035 6.28264C8.13035 4.85616 9.2912 3.69568 10.7173 3.69568L13.3043 3.69568L13.3043 5.91307L10.7173 5.91307C10.5129 5.91307 10.3477 6.07872 10.3477 6.28264L10.3477 8.50003C10.3477 8.70394 10.5129 8.86959 10.7173 8.86959L13.3043 8.86959L13.3043 11.087L10.7173 11.087C10.5129 11.087 10.3477 11.2526 10.3477 11.4565L10.3477 16.2609L8.13035 16.2609L8.13035 11.4565C8.13035 11.2526 7.96469 11.087 7.76078 11.087ZM16.2608 15.1522C16.2608 15.7634 15.7632 16.2609 15.1521 16.2609L11.0868 16.2609L11.0868 11.8261L13.6738 11.8261C13.8782 11.8261 14.0434 11.6604 14.0434 11.4565L14.0434 8.50001C14.0434 8.29609 13.8782 8.13044 13.6738 8.13044L11.0868 8.13044L11.0868 6.65218L13.6738 6.65218C13.8782 6.65218 14.0434 6.48652 14.0434 6.28261L14.0434 3.32609C14.0434 3.12218 13.8782 2.95653 13.6738 2.95653L10.7173 2.95653C8.88316 2.95653 7.39119 4.44886 7.39119 6.28261L7.39119 8.13044L4.80423 8.13044C4.60032 8.13044 4.43467 8.29609 4.43467 8.50001L4.43467 11.4565C4.43467 11.6604 4.60032 11.8261 4.80423 11.8261L7.39119 11.8261L7.39119 16.2609L1.84771 16.2609C1.23652 16.2609 0.739014 15.7634 0.739014 15.1522L0.739014 1.84783C0.739014 1.23664 1.23652 0.739136 1.84771 0.739136L15.1521 0.739136C15.7632 0.739136 16.2608 1.23664 16.2608 1.84783L16.2608 15.1522Z" id="Shape" fill="#0A0D53" stroke="none" />
</svg>