<?xml version="1.0" encoding="utf-8"?>
<svg width="14px" height="14px" viewBox="0 0 14 14" version="1.1" xmlns:xlink="http://www.w3.org/1999/xlink" xmlns="http://www.w3.org/2000/svg">
  <desc>Created with Lunacy</desc>
  <g id="heart-copy">
    <path d="M10.1298 0.00953205C11.1656 0.00953205 12.1361 0.438474 12.8692 1.22328C13.6023 2.00809 14.003 3.05026 14 4.15915C14 5.26805 13.5964 6.31022 12.8633 7.09502L7.27752 13.0526C7.20035 13.1352 7.09648 13.1765 6.99556 13.1765C6.89465 13.1765 6.79077 13.132 6.71361 13.0494L1.13974 7.08231C0.406646 6.29751 3.23268e-05 5.25851 3.23268e-05 4.14962C-0.00293565 3.04072 0.40071 1.99855 1.1338 1.21375C1.86392 0.43212 2.83742 0 3.87028 0C4.90611 0 5.88257 0.435297 6.61566 1.2201L7.00447 1.63634L7.38734 1.22646C8.12043 0.441652 9.09393 0.00953205 10.1298 0.00953205Z" id="Shape" fill="#FFFFFF" fill-rule="evenodd" stroke="none" />
  </g>
</svg>