<?xml version="1.0" encoding="utf-8"?>
<svg width="10px" height="10px" viewBox="0 0 10 10" version="1.1" xmlns:xlink="http://www.w3.org/1999/xlink" xmlns="http://www.w3.org/2000/svg">
  <desc>Created with Lunacy</desc>
  <g id="instagram-5-copy">
    <path d="M8.53516 0L1.46484 0C0.657196 0 0 0.657196 0 1.46484L0 8.53516C0 9.3428 0.657196 10 1.46484 10L8.53516 10C9.3428 10 10 9.3428 10 8.53516L10 1.46484C10 0.657196 9.3428 0 8.53516 0ZM5.01953 7.61719C3.5656 7.61719 2.38281 6.4344 2.38281 4.98047C2.38281 3.52654 3.5656 2.34375 5.01953 2.34375C6.47346 2.34375 7.65625 3.52654 7.65625 4.98047C7.65625 6.4344 6.47346 7.61719 5.01953 7.61719ZM7.94922 2.92969C7.4646 2.92969 7.07031 2.5354 7.07031 2.05078C7.07031 1.56616 7.4646 1.17188 7.94922 1.17188C8.43384 1.17188 8.82813 1.56616 8.82813 2.05078C8.82813 2.5354 8.43384 2.92969 7.94922 2.92969Z" id="Shape" fill="#F45A8C" stroke="none" />
    <path d="M0.25 0C0.112044 0 0 0.112044 0 0.25C0 0.387956 0.112044 0.5 0.25 0.5C0.387956 0.5 0.5 0.387956 0.5 0.25C0.5 0.112044 0.387956 0 0.25 0Z" transform="translate(7.7773438 1.8518524)" id="Shape" fill="#F45A8C" fill-rule="evenodd" stroke="none" />
    <path d="M2.03704 0C0.913939 0 0 0.913939 0 2.03704C0 3.16014 0.913939 4.07407 2.03704 4.07407C3.16014 4.07407 4.07407 3.16014 4.07407 2.03704C4.07407 0.913939 3.16014 0 2.03704 0Z" transform="translate(2.9628906 2.962963)" id="Shape" fill="#F45A8C" fill-rule="evenodd" stroke="none" />
  </g>
</svg>