<?xml version="1.0" encoding="utf-8"?>
<svg width="17px" height="17px" viewBox="0 0 17 17" version="1.1" xmlns:xlink="http://www.w3.org/1999/xlink" xmlns="http://www.w3.org/2000/svg">
  <desc>Created with Lunacy</desc>
  <g id="instagram-2">
    <path d="M15.1522 0L1.84783 0C0.828995 0 0 0.828995 0 1.84783L0 15.1522C0 16.171 0.828995 17 1.84783 17L15.1522 17C16.171 17 17 16.171 17 15.1522L17 1.84783C17 0.828995 16.171 0 15.1522 0ZM16.2609 15.1522C16.2609 15.7634 15.7634 16.2609 15.1522 16.2609L1.84783 16.2609C1.23664 16.2609 0.73913 15.7634 0.73913 15.1522L0.73913 1.84783C0.73913 1.23664 1.23664 0.73913 1.84783 0.73913L15.1522 0.73913C15.7634 0.73913 16.2609 1.23664 16.2609 1.84783L16.2609 15.1522Z" id="Shape" fill="#0A0D53" stroke="none" />
    <path d="M5.54348 0C2.48681 0 0 2.48681 0 5.54348C0 8.60015 2.48681 11.087 5.54348 11.087C8.60015 11.087 11.087 8.60015 11.087 5.54348C11.087 2.48681 8.60015 0 5.54348 0ZM5.54348 10.3478C2.89445 10.3478 0.73913 8.19251 0.73913 5.54348C0.73913 2.89445 2.89445 0.73913 5.54348 0.73913C8.19251 0.73913 10.3478 2.89445 10.3478 5.54348C10.3478 8.19251 8.19251 10.3478 5.54348 10.3478Z" transform="translate(2.956543 2.956543)" id="Shape" fill="#0A0D53" stroke="none" />
    <path d="M2.58696 0C1.16049 0 0 1.16049 0 2.58696C0 4.01343 1.16049 5.17391 2.58696 5.17391C4.01343 5.17391 5.17391 4.01343 5.17391 2.58696C5.17391 1.16049 4.01343 0 2.58696 0ZM2.58696 4.43478C1.56813 4.43478 0.73913 3.60579 0.73913 2.58696C0.73913 1.56813 1.56813 0.73913 2.58696 0.73913C3.60579 0.73913 4.43478 1.56813 4.43478 2.58696C4.43478 3.60579 3.60579 4.43478 2.58696 4.43478Z" transform="translate(5.913086 5.913025)" id="Shape" fill="#0A0D53" stroke="none" />
    <path d="M1.47826 0.73913C1.47826 1.14731 1.14731 1.47826 0.73913 1.47826C0.330949 1.47826 0 1.14731 0 0.73913C0 0.330949 0.330949 0 0.73913 0C1.14731 0 1.47826 0.330949 1.47826 0.73913Z" transform="translate(13.304443 2.2174072)" id="Path" fill="#0A0D53" fill-rule="evenodd" stroke="none" />
  </g>
</svg>