<svg id="Capa_1" enable-background="new 0 0 512 512" height="512" viewBox="0 0 512 512" width="512" xmlns="http://www.w3.org/2000/svg"><g><g><path d="m171 241v120h170v-120zm100 75c0 8.284-6.716 15-15 15s-15-6.716-15-15v-30c0-8.284 6.716-15 15-15s15 6.716 15 15z"/><path d="m256 0c-141.159 0-256 114.841-256 256s114.841 256 256 256 256-114.841 256-256-114.841-256-256-256zm115 376c0 8.284-6.716 15-15 15h-200c-8.284 0-15-6.716-15-15v-150c0-8.284 6.716-15 15-15h5v-15c0-52.383 42.617-95 95-95s95 42.617 95 95v15h5c8.284 0 15 6.716 15 15z"/><path d="m321 196c0-35.841-29.159-65-65-65s-65 29.159-65 65v15h130z"/></g></g></svg>