<?xml version="1.0" encoding="utf-8"?>
<svg width="8px" height="12px" viewBox="0 0 8 12" version="1.1" xmlns:xlink="http://www.w3.org/1999/xlink" xmlns="http://www.w3.org/2000/svg">
  <desc>Created with Lunacy</desc>
  <g id="map-pin-copy">
    <path d="M4 0C1.79437 0 0 1.78371 0 3.97624C0 6.64521 3.66732 11.0067 3.82348 11.1911C3.86708 11.2426 3.93129 11.2724 3.99902 11.2727C3.99935 11.2727 3.99966 11.2727 4 11.2727C4.06735 11.2727 4.13142 11.2435 4.17526 11.1926C4.33142 11.0113 8 6.72189 8 3.97624C7.99997 1.78371 6.20563 0 4 0ZM4.00138 10.6823C3.26486 9.77176 0.461538 6.16173 0.461538 3.97624C0.461538 2.03672 2.04889 0.458797 4 0.458797C5.95111 0.458797 7.53846 2.03672 7.53846 3.97624C7.53843 6.22404 4.74 9.78243 4.00138 10.6823Z" id="Shape" fill="#F45A8C" stroke="none" />
    <path d="M1.68182 0C0.754443 0 0 0.754443 0 1.68182C0 2.60919 0.754443 3.36364 1.68182 3.36364C2.60919 3.36364 3.36364 2.60919 3.36364 1.68182C3.36364 0.754443 2.60919 0 1.68182 0ZM1.68182 2.90716C1.00616 2.90716 0.456445 2.35748 0.456445 1.68179C0.456445 1.0061 1.00613 0.456415 1.68182 0.456415C2.35751 0.456415 2.90719 1.0061 2.90719 1.68179C2.90719 2.35748 2.35745 2.90716 1.68182 2.90716Z" transform="translate(2.2729492 2.181818)" id="Shape" fill="#F45A8C" stroke="none" />
  </g>
</svg>