<svg height="512pt" viewBox="0 0 512 512" width="512pt" xmlns="http://www.w3.org/2000/svg"><path d="m192.5 245c28.949219 0 52.5-23.550781 52.5-52.5s-23.550781-52.5-52.5-52.5-52.5 23.550781-52.5 52.5 23.550781 52.5 52.5 52.5zm0-90c20.679688 0 37.5 16.820312 37.5 37.5s-16.820312 37.5-37.5 37.5-37.5-16.820312-37.5-37.5 16.820312-37.5 37.5-37.5zm0 0"/><path d="m192.5 215c12.40625 0 22.5-10.09375 22.5-22.5s-10.09375-22.5-22.5-22.5-22.5 10.09375-22.5 22.5 10.09375 22.5 22.5 22.5zm0-30c4.136719 0 7.5 3.363281 7.5 7.5s-3.363281 7.5-7.5 7.5-7.5-3.363281-7.5-7.5 3.363281-7.5 7.5-7.5zm0 0"/><path d="m319.5 267c-28.949219 0-52.5 23.550781-52.5 52.5s23.550781 52.5 52.5 52.5 52.5-23.550781 52.5-52.5-23.550781-52.5-52.5-52.5zm0 90c-20.679688 0-37.5-16.820312-37.5-37.5s16.820312-37.5 37.5-37.5 37.5 16.820312 37.5 37.5-16.820312 37.5-37.5 37.5zm0 0"/><path d="m319.5 297c-12.40625 0-22.5 10.09375-22.5 22.5s10.09375 22.5 22.5 22.5 22.5-10.09375 22.5-22.5-10.09375-22.5-22.5-22.5zm0 30c-4.136719 0-7.5-3.363281-7.5-7.5s3.363281-7.5 7.5-7.5 7.5 3.363281 7.5 7.5-3.363281 7.5-7.5 7.5zm0 0"/><path d="m146.589844 365.410156c4.25 4.25 9.898437 6.589844 15.910156 6.589844s11.660156-2.339844 15.910156-6.589844l187-187c4.25-4.25 6.589844-9.898437 6.589844-15.910156s-2.339844-11.660156-6.589844-15.910156-9.902344-6.589844-15.910156-6.589844c-6.011719 0-11.660156 2.339844-15.910156 6.589844l-187 187c-4.25 4.25-6.589844 9.898437-6.589844 15.910156s2.339844 11.660156 6.589844 15.910156zm10.605468-21.214844 187-187c1.417969-1.414062 3.300782-2.195312 5.304688-2.195312s3.886719.78125 5.304688 2.195312c1.414062 1.417969 2.195312 3.300782 2.195312 5.304688s-.78125 3.886719-2.195312 5.304688l-187 187c-1.417969 1.414062-3.300782 2.195312-5.304688 2.195312s-3.886719-.78125-5.304688-2.195312c-1.414062-1.417969-2.195312-3.300782-2.195312-5.304688s.78125-3.886719 2.195312-5.304688zm0 0"/><path d="m509.371094 250.296875-23.617188-20.183594 18.535156-24.9375c1.308594-1.757812 1.78125-4.003906 1.292969-6.140625-.488281-2.140625-1.886719-3.957031-3.832031-4.976562l-27.519531-14.421875 12.523437-28.4375c.882813-2.003907.84375-4.300781-.105468-6.273438-.953126-1.976562-2.722657-3.4375-4.84375-4l-30.035157-7.9375 5.878907-30.507812c.414062-2.152344-.132813-4.378907-1.5-6.09375-1.367188-1.714844-3.417969-2.746094-5.609376-2.820313l-31.050781-1.054687-1.054687-31.054688c-.074219-2.191406-1.105469-4.238281-2.820313-5.609375-1.714843-1.367187-3.941406-1.914062-6.097656-1.5l-30.507813 5.882813-7.9375-30.039063c-.558593-2.121094-2.019531-3.890625-3.996093-4.839844-1.976563-.953124-4.269531-.992187-6.277344-.109374l-28.433594 12.523437-14.425781-27.519531c-1.015625-1.941406-2.832031-3.34375-4.972656-3.832032-2.140625-.484374-4.382813-.015624-6.144532 1.296876l-24.933593 18.53125-20.1875-23.613282c-1.421875-1.667968-3.507813-2.628906-5.699219-2.628906s-4.277344.960938-5.699219 2.628906l-20.1875 23.617188-24.933593-18.535156c-1.761719-1.308594-4.007813-1.78125-6.144532-1.292969-2.140625.488281-3.957031 1.886719-4.976562 3.828125l-14.421875 27.519531-28.4375-12.519531c-2.003907-.886719-4.300781-.847656-6.273438.105468-1.976562.953126-3.4375 2.722657-3.996093 4.839844l-7.941407 30.039063-30.507812-5.878907c-2.15625-.417968-4.378907.132813-6.09375 1.5-1.714844 1.367188-2.746094 3.417969-2.820313 5.609376l-1.054687 31.050781-31.050781 1.054687c-2.191407.074219-4.242188 1.105469-5.609376 2.820313-1.367187 1.714843-1.914062 3.941406-1.5 6.09375l5.878907 30.507812-30.035157 7.941407c-2.121093.558593-3.890624 2.019531-4.84375 3.996093-.949218 1.976563-.988281 4.269531-.105468 6.277344l12.523437 28.433594-27.519531 14.425781c-1.945312 1.015625-3.34375 2.835938-3.832031 4.972656-.488281 2.136719-.015625 4.382813 1.292969 6.144532l18.535156 24.933593-23.617188 20.183594c-1.667968 1.425781-2.628906 3.511719-2.628906 5.703125s.960938 4.277344 2.628906 5.703125l23.617188 20.183594-18.535156 24.933593c-1.308594 1.761719-1.78125 4.007813-1.292969 6.144532.488281 2.136718 1.886719 3.957031 3.832031 4.972656l27.519531 14.425781-12.523437 28.433594c-.882813 2.007813-.84375 4.300781.105468 6.277344.953126 1.976562 2.722657 3.4375 4.84375 3.996093l30.035157 7.941407-5.878907 30.507812c-.414062 2.152344.132813 4.378907 1.5 6.09375 1.367188 1.714844 3.417969 2.746094 5.609376 2.820313l31.050781 1.054687 1.054687 31.050781c.074219 2.195313 1.105469 4.242188 2.820313 5.609376 1.714843 1.367187 3.941406 1.917968 6.097656 1.5l30.507813-5.878907 7.9375 30.039063c.558593 2.121094 2.019531 3.886718 3.996093 4.839844 1.976563.953124 4.269531.992187 6.277344.109374l28.433594-12.523437 14.425781 27.519531c1.015625 1.941406 2.832031 3.339844 4.972656 3.828125 2.136719.488281 4.382813.015625 6.144532-1.292969l24.933593-18.535156 20.1875 23.621094c1.421875 1.664062 3.507813 2.625 5.699219 2.625s4.277344-.960938 5.699219-2.628906l20.1875-23.617188 24.9375 18.535156c1.757812 1.308594 4.003906 1.777344 6.144531 1.292969 2.136719-.488281 3.953125-1.886719 4.972656-3.828125l14.421875-27.519531 28.4375 12.519531c2.007813.886719 4.300781.847656 6.273438-.105468 1.980469-.953126 3.4375-2.722657 4-4.839844l7.9375-30.039063 30.507812 5.878907c2.15625.417968 4.378907-.132813 6.09375-1.5 1.714844-1.367188 2.746094-3.417969 2.820313-5.609376l1.054687-31.050781 31.054688-1.054687c2.191406-.074219 4.238281-1.105469 5.605469-2.820313 1.371093-1.714843 1.917968-3.941406 1.503906-6.097656l-5.882813-30.503906 30.039063-7.941407c2.121094-.558593 3.890625-2.019531 4.839844-3.996093.953124-1.976563.992187-4.269531.109374-6.277344l-12.523437-28.433594 27.519531-14.425781c1.941406-1.019531 3.34375-2.835938 3.828125-4.972656.488281-2.140625.015625-4.382813-1.292969-6.144532l-18.53125-24.933593 23.617188-20.1875c1.664062-1.421875 2.625-3.507813 2.625-5.699219s-.960938-4.277344-2.628906-5.703125zm-38.6875 24.738281c-3 2.5625-3.5 7.011719-1.148438 10.175782l17.480469 23.515624-25.953125 13.605469c-3.492188 1.828125-4.972656 6.054688-3.382812 9.664063l11.8125 26.816406-28.328126 7.488281c-3.8125 1.007813-6.195312 4.796875-5.449218 8.667969l5.546875 28.769531-29.285157.996094c-3.941406.136719-7.105468 3.300781-7.242187 7.242187l-.992187 29.285157-28.769532-5.546875c-3.867187-.742188-7.664062 1.636718-8.671875 5.449218l-7.488281 28.328126-26.816406-11.808594c-3.605469-1.589844-7.832032-.113282-9.664063 3.382812l-13.601562 25.949219-23.515625-17.476563c-3.164063-2.355468-7.613282-1.855468-10.175782 1.144532l-19.039062 22.273437-19.035156-22.273437c-1.480469-1.730469-3.582032-2.628906-5.707032-2.628906-1.558593 0-3.128906.484374-4.472656 1.480468l-23.515625 17.480469-13.601562-25.953125c-1.828125-3.492188-6.058594-4.972656-9.664063-3.382812l-26.816406 11.808593-7.484375-28.328125c-1.007813-3.8125-4.800781-6.195312-8.671875-5.445312l-28.769531 5.542968-.996094-29.285156c-.132813-3.941406-3.296875-7.105468-7.242187-7.238281l-29.285157-.996094 5.546875-28.769531c.746094-3.871094-1.632812-7.664062-5.445312-8.667969l-28.328125-7.488281 11.808593-26.816406c1.589844-3.609375.109376-7.835938-3.382812-9.664063l-25.953125-13.605469 17.480469-23.515624c2.351562-3.164063 1.851562-7.613282-1.144532-10.175782l-22.277343-19.035156 22.273437-19.035156c3-2.5625 3.5-7.011719 1.148438-10.175782l-17.480469-23.515624 25.953125-13.605469c3.492188-1.828125 4.972656-6.054688 3.382812-9.664063l-11.8125-26.816406 28.328126-7.488281c3.8125-1.007813 6.195312-4.796875 5.449218-8.667969l-5.546875-28.769531 29.285157-.996094c3.941406-.136719 7.105468-3.300781 7.242187-7.242187l.992187-29.285157 28.773438 5.546875c3.867188.746094 7.660156-1.632812 8.667969-5.449218l7.488281-28.328126 26.816406 11.808594c3.609375 1.589844 7.835938.113282 9.664063-3.382812l13.601562-25.949219 23.515625 17.476563c3.167969 2.355468 7.613282 1.855468 10.175782-1.144532l19.039062-22.273437 19.035156 22.273437c2.566406 3 7.011719 3.5 10.179688 1.148438l23.515625-17.480469 13.601562 25.953125c1.828125 3.492188 6.058594 4.96875 9.664063 3.382812l26.816406-11.808593 7.484375 28.328125c1.007813 3.8125 4.796875 6.191406 8.671875 5.445312l28.769531-5.542968.996094 29.28125c.132813 3.945312 3.296875 7.109374 7.242187 7.242187l29.28125.996094-5.542968 28.769531c-.75 3.875 1.632812 7.664062 5.445312 8.671875l28.328125 7.488281-11.808593 26.816406c-1.589844 3.609376-.113282 7.832032 3.382812 9.664063l25.949219 13.601563-17.476563 23.515624c-2.355468 3.167969-1.851562 7.613282 1.144532 10.175782l22.277343 19.035156zm0 0"/><path d="m256 58c-47.109375 0-92.761719 16.835938-128.546875 47.410156-3.148437 2.691406-3.519531 7.425782-.828125 10.574219 2.6875 3.148437 7.425781 3.523437 10.574219.832031 33.066406-28.253906 75.257812-43.816406 118.800781-43.816406 100.90625 0 183 82.09375 183 183s-82.09375 183-183 183-183-82.09375-183-183c0-43.542969 15.5625-85.734375 43.816406-118.800781 2.6875-3.148438 2.316406-7.882813-.832031-10.574219s-7.882813-2.320312-10.574219.828125c-30.570312 35.785156-47.410156 81.4375-47.410156 128.546875 0 109.179688 88.820312 198 198 198s198-88.820312 198-198-88.820312-198-198-198zm0 0"/></svg>