<?xml version="1.0" encoding="utf-8"?>
<svg width="14px" height="14px" viewBox="0 0 14 14" version="1.1" xmlns:xlink="http://www.w3.org/1999/xlink" xmlns="http://www.w3.org/2000/svg">
  <desc>Created with Lunacy</desc>
  <g id="mathematical-addition-sign">
    <path d="M13.2222 6.22223L7.77777 6.22223L7.77777 0.777767C7.77777 0.348431 7.42777 0 7 0C6.57066 0 6.22223 0.348431 6.22223 0.777767L6.22223 6.22223L0.777767 6.22223C0.348431 6.22223 0 6.57066 0 7C0 7.42777 0.348431 7.77777 0.777767 7.77777L6.22223 7.77777L6.22223 13.2222C6.22223 13.65 6.57066 14 7 14C7.42777 14 7.77777 13.65 7.77777 13.2222L7.77777 7.77777L13.2222 7.77777C13.65 7.77777 14 7.42777 14 7C14 6.57066 13.65 6.22223 13.2222 6.22223Z" id="Shape" fill="#010002" fill-rule="evenodd" stroke="none" />
  </g>
</svg>