<?xml version="1.0" encoding="utf-8"?>
<svg width="17px" height="17px" viewBox="0 0 17 17" version="1.1" xmlns:xlink="http://www.w3.org/1999/xlink" xmlns="http://www.w3.org/2000/svg">
  <desc>Created with Lunacy</desc>
  <g id="magnifying-glass-5">
    <path d="M16.853 16.133L12.7208 12.0018C13.8292 10.7277 14.5003 9.06541 14.5003 7.24856C14.5003 3.24922 11.2466 0 7.25017 0C3.24994 0 0 3.25299 0 7.24856C0 11.2441 3.25371 14.4971 7.25017 14.4971C9.06742 14.4971 10.7301 13.8262 12.0044 12.718L16.1366 16.8492C16.2346 16.9472 16.3666 17 16.4948 17C16.623 17 16.7549 16.951 16.853 16.8492C17.049 16.6532 17.049 16.329 16.853 16.133ZM1.01419 7.24856C1.01419 3.81086 3.81171 1.01774 7.2464 1.01774C10.6849 1.01774 13.4786 3.81463 13.4786 7.24856C13.4786 10.6825 10.6849 13.4831 7.2464 13.4831C3.81171 13.4831 1.01419 10.6863 1.01419 7.24856Z" id="Shape" fill="#05052E" stroke="none" />
  </g>
</svg>