<?xml version="1.0" encoding="utf-8"?>
<svg width="17px" height="19px" viewBox="0 0 17 19" version="1.1" xmlns:xlink="http://www.w3.org/1999/xlink" xmlns="http://www.w3.org/2000/svg">
  <desc>Created with Lunacy</desc>
  <g id="shopping-cart">
    <path d="M4.84502 12.5101L14.9247 12.5101C16.0676 12.5101 17 11.5416 17 10.3546L17 5.94984C17 5.94594 17 5.93813 17 5.93422C17 5.92251 17 5.9147 17 5.90298C17 5.89517 17 5.88736 16.9962 5.87955C16.9962 5.87174 16.9925 5.86003 16.9925 5.85222C16.9925 5.84441 16.9887 5.8366 16.9887 5.82879C16.985 5.82098 16.985 5.81317 16.9812 5.80145C16.9774 5.79364 16.9774 5.78583 16.9737 5.77802C16.9699 5.77022 16.9699 5.7624 16.9662 5.7546C16.9624 5.74679 16.9586 5.73898 16.9549 5.72726C16.9511 5.71945 16.9474 5.71164 16.9436 5.70774C16.9398 5.69993 16.9361 5.69212 16.9323 5.68431C16.9286 5.6765 16.9248 5.67259 16.921 5.66478C16.9173 5.65697 16.9098 5.64916 16.906 5.64135C16.9022 5.63354 16.8985 5.62964 16.891 5.62183C16.8872 5.61402 16.8797 5.61011 16.8759 5.6023C16.8722 5.59449 16.8647 5.59059 16.8609 5.58278C16.8571 5.57497 16.8496 5.57107 16.8459 5.56716C16.8383 5.55935 16.8346 5.55545 16.8271 5.54764C16.8195 5.54373 16.8158 5.53592 16.8083 5.53202C16.8007 5.52811 16.7932 5.5203 16.7857 5.5164C16.7782 5.51249 16.7744 5.50859 16.7669 5.50468C16.7594 5.50078 16.7519 5.49687 16.7443 5.48906C16.7368 5.48516 16.7293 5.48125 16.7218 5.47735C16.7143 5.47344 16.7067 5.46954 16.6992 5.46563C16.6917 5.46173 16.6842 5.45782 16.6767 5.45392C16.6691 5.45001 16.6616 5.45001 16.6541 5.44611C16.6466 5.4422 16.6353 5.4383 16.6278 5.4383C16.6203 5.4383 16.6128 5.43439 16.609 5.43439C16.5977 5.43049 16.5902 5.43049 16.5789 5.43049C16.5752 5.43049 16.5714 5.42658 16.5639 5.42658L3.78856 3.59519L3.78856 1.74427C3.78856 1.72474 3.78856 1.70522 3.7848 1.6896C3.7848 1.68569 3.7848 1.68179 3.78104 1.67398C3.78104 1.66227 3.77728 1.65055 3.77728 1.63884C3.77352 1.62712 3.77352 1.61931 3.76976 1.6076C3.76976 1.59979 3.766 1.59588 3.766 1.58807C3.76224 1.57636 3.75848 1.56464 3.75472 1.55293C3.75472 1.54902 3.75096 1.54121 3.75096 1.53731C3.7472 1.52559 3.74344 1.51778 3.73593 1.50607C3.73217 1.50216 3.73217 1.49435 3.72841 1.49045C3.72465 1.48264 3.72089 1.47483 3.71337 1.46702C3.70961 1.45921 3.70585 1.45531 3.70209 1.4475C3.69833 1.43969 3.69457 1.43578 3.69081 1.42797C3.68705 1.42016 3.67953 1.41235 3.67577 1.40454C3.67201 1.40064 3.66825 1.39673 3.66449 1.39283C3.65697 1.38502 3.64945 1.37721 3.64193 1.3694C3.63817 1.36549 3.63441 1.36159 3.63066 1.35768C3.62314 1.34987 3.61562 1.34206 3.60434 1.33425C3.60058 1.33035 3.59306 1.32644 3.5893 1.32254C3.58178 1.31473 3.57426 1.31082 3.56674 1.30301C3.55546 1.2952 3.54418 1.2874 3.53666 1.28349C3.5329 1.27959 3.52914 1.27959 3.52538 1.27568C3.51035 1.26787 3.49155 1.26006 3.47651 1.25225L0.705641 0.0417336C0.446224 -0.0715084 0.149211 0.0534483 0.0401813 0.322886C-0.0688487 0.592324 0.0514603 0.900811 0.310877 1.01405L2.76969 2.0918L2.76969 4.4816L2.76969 4.86037L2.76969 7.76562L2.76969 10.3624L2.76969 13.6425C2.76969 14.7359 3.55922 15.6418 4.57809 15.7785C4.39387 16.0987 4.28484 16.4735 4.28484 16.8718C4.28484 18.0472 5.20595 19 6.33385 19C7.46175 19 8.38286 18.0433 8.38286 16.8718C8.38286 16.4813 8.28135 16.1104 8.10089 15.798L12.6651 15.798C12.4847 16.1143 12.3831 16.4813 12.3831 16.8718C12.3831 18.0472 13.3043 19 14.4322 19C15.5601 19 16.4812 18.0433 16.4812 16.8718C16.4812 15.7004 15.5601 14.7437 14.4322 14.7437L4.84502 14.7437C4.25852 14.7437 3.7848 14.2477 3.7848 13.6425L3.7848 12.2133C4.09309 12.4007 4.45778 12.5101 4.84502 12.5101ZM7.37151 16.8679C7.37151 17.4615 6.90532 17.9418 6.33761 17.9418C5.7699 17.9418 5.3037 17.4576 5.3037 16.8679C5.3037 16.2783 5.7699 15.7941 6.33761 15.7941C6.90532 15.7941 7.37151 16.2744 7.37151 16.8679ZM15.4698 16.8679C15.4698 17.4615 15.0036 17.9418 14.4359 17.9418C13.8682 17.9418 13.402 17.4576 13.402 16.8679C13.402 16.2783 13.8682 15.7941 14.4359 15.7941C15.0036 15.7941 15.4698 16.2744 15.4698 16.8679ZM14.9247 11.4557L4.84502 11.4557C4.25852 11.4557 3.7848 10.9598 3.7848 10.3546L3.7848 7.75781L3.7848 4.85256L3.7848 4.65732L15.9849 6.40281L15.9849 10.3507C15.9849 10.9637 15.5074 11.4557 14.9247 11.4557Z" id="Shape" fill="#05052E" stroke="none" />
  </g>
</svg>