<?xml version="1.0" encoding="utf-8"?>
<svg width="19px" height="18px" viewBox="0 0 19 18" version="1.1" xmlns:xlink="http://www.w3.org/1999/xlink" xmlns="http://www.w3.org/2000/svg">
  <desc>Created with Lunacy</desc>
  <g id="star" transform="translate(1 1)">
    <path d="M16.6311 7.25093C16.9657 6.93057 17.0838 6.46039 16.9395 6.02332C16.7948 5.58626 16.418 5.27425 15.955 5.20804L11.8389 4.62049C11.6635 4.59541 11.5121 4.4874 11.4338 4.33123L9.59355 0.667475C9.38692 0.255821 8.96755 0 8.50017 0C8.03314 0 7.61376 0.255821 7.40713 0.667475L5.56656 4.33156C5.48827 4.48773 5.33645 4.59574 5.16114 4.62083L1.04497 5.20838C0.582361 5.27425 0.205193 5.58659 0.0605214 6.02366C-0.0838102 6.46073 0.0343102 6.9309 0.368928 7.25126L3.34713 10.1031C3.4741 10.2248 3.53231 10.4 3.50235 10.5712L2.79976 14.5982C2.73746 14.9526 2.83209 15.2974 3.06561 15.5693C3.42848 15.993 4.06198 16.1221 4.5685 15.8606L8.24963 13.9591C8.4035 13.8799 8.59719 13.8805 8.75071 13.9591L12.4322 15.8606C12.6112 15.9532 12.8022 16 12.9993 16C13.3591 16 13.7002 15.8428 13.9347 15.5693C14.1686 15.2974 14.2629 14.952 14.2006 14.5982L13.4976 10.5712C13.4677 10.3997 13.5259 10.2248 13.6529 10.1031L16.6311 7.25093Z" id="Shape" fill="none" fill-rule="evenodd" stroke="#F3D52D" stroke-width="2" />
  </g>
</svg>