<?xml version="1.0" encoding="utf-8"?>
<svg width="17px" height="17px" viewBox="0 0 17 17" version="1.1" xmlns:xlink="http://www.w3.org/1999/xlink" xmlns="http://www.w3.org/2000/svg">
  <desc>Created with Lunacy</desc>
  <g id="twitter">
    <path d="M15.1522 0L1.84783 0C0.828995 0 0 0.828995 0 1.84783L0 15.1522C0 16.171 0.828995 17 1.84783 17L15.1522 17C16.171 17 17 16.171 17 15.1522L17 1.84783C17 0.828995 16.171 0 15.1522 0ZM16.2609 15.1522C16.2609 15.7634 15.7634 16.2609 15.1522 16.2609L1.84783 16.2609C1.23664 16.2609 0.73913 15.7634 0.73913 15.1522L0.73913 1.84783C0.73913 1.23664 1.23664 0.73913 1.84783 0.73913L15.1522 0.73913C15.7634 0.73913 16.2609 1.23664 16.2609 1.84783L16.2609 15.1522Z" id="Shape" fill="#0A0D53" stroke="none" />
    <path d="M7.76087 7.3913L3.69565 7.3913L3.69565 5.91304L6.28261 5.91304C7.30144 5.91304 8.13043 5.08405 8.13043 4.06522C8.13043 3.04639 7.30144 2.21739 6.28261 2.21739L3.69565 2.21739L3.69565 1.84783C3.69565 0.828995 2.86666 0 1.84783 0C0.828995 0 0 0.828995 0 1.84783L0 7.76087C0 9.59498 1.49198 11.087 3.32609 11.087L7.76087 11.087C8.7797 11.087 9.6087 10.258 9.6087 9.23913C9.6087 8.2203 8.7797 7.3913 7.76087 7.3913ZM7.76087 10.3478L3.32609 10.3478C1.89998 10.3478 0.73913 9.18698 0.73913 7.76087L0.73913 1.84783C0.73913 1.23664 1.23664 0.73913 1.84783 0.73913C2.45902 0.73913 2.95652 1.23664 2.95652 1.84783L2.95652 2.58696C2.95652 2.79141 3.12164 2.95652 3.32609 2.95652L6.28261 2.95652C6.8938 2.95652 7.3913 3.45403 7.3913 4.06522C7.3913 4.67641 6.8938 5.17391 6.28261 5.17391L3.32609 5.17391C3.12164 5.17391 2.95652 5.33903 2.95652 5.54348L2.95652 7.76087C2.95652 7.96532 3.12164 8.13043 3.32609 8.13043L7.76087 8.13043C8.37206 8.13043 8.86957 8.62794 8.86957 9.23913C8.86957 9.85032 8.37206 10.3478 7.76087 10.3478Z" transform="translate(3.6955566 2.956543)" id="Shape" fill="#0A0D53" stroke="none" />
  </g>
</svg>