<?xml version="1.0" encoding="utf-8"?>
<svg width="12px" height="10px" viewBox="0 0 12 10" version="1.1" xmlns:xlink="http://www.w3.org/1999/xlink" xmlns="http://www.w3.org/2000/svg">
  <desc>Created with Lunacy</desc>
  <g id="twitter-logo-silhouette-copy">
    <path d="M12 1.18316C11.5583 1.38393 11.0844 1.5201 10.5865 1.58089C11.0949 1.26855 11.4841 0.773135 11.6685 0.184624C11.1916 0.47387 10.6652 0.683901 10.1043 0.797757C9.65517 0.306184 9.01629 0 8.30766 0C6.94817 0 5.84587 1.13086 5.84587 2.52481C5.84587 2.72251 5.86762 2.9156 5.90962 3.10024C3.86401 2.99484 2.0501 1.98938 0.83608 0.46156C0.623864 0.833905 0.503138 1.26776 0.503138 1.73089C0.503138 2.60712 0.93806 3.38026 1.59794 3.83258C1.19451 3.81874 0.81508 3.70489 0.482903 3.51564L0.482903 3.54718C0.482903 4.77035 1.33175 5.79119 2.45728 6.02353C2.25106 6.08046 2.03361 6.112 1.80865 6.112C1.64969 6.112 1.49596 6.09584 1.34524 6.06507C1.65867 7.06899 2.56751 7.79904 3.64432 7.81905C2.80222 8.49603 1.74041 8.89837 0.587138 8.89837C0.388432 8.89837 0.192706 8.88606 0 8.86375C1.08955 9.58151 2.38306 10 3.7733 10C8.3017 10 10.777 6.15201 10.777 2.81484L10.7687 2.4879C11.2524 2.134 11.6708 1.68935 12 1.18316Z" id="Shape" fill="#F45A8C" fill-rule="evenodd" stroke="none" />
  </g>
</svg>