<?xml version="1.0" encoding="utf-8"?>
<svg width="26px" height="15px" viewBox="0 0 26 15" version="1.1" xmlns:xlink="http://www.w3.org/1999/xlink" xmlns="http://www.w3.org/2000/svg">
  <desc>Created with Lunacy</desc>
  <g id="video-camera-with-play-button">
    <path d="M24.9168 0.946696C24.2609 0.673826 23.5062 0.824543 23.0041 1.32887L19.6607 4.68835L19.6607 2.64072C19.6607 1.18252 18.4839 0 17.0323 0L2.62844 0C1.1769 -9.26795e-16 0 1.18252 0 2.64072L0 12.3593C0 13.8175 1.1769 15 2.62844 15L17.0323 15C18.4839 15 19.6607 13.8175 19.6607 12.3593L19.6607 10.3116L23.0041 13.6711C23.3401 14.0085 23.7887 14.1878 24.2456 14.1878C24.4715 14.1878 24.6996 14.1436 24.9168 14.0533C25.5723 13.7804 26 13.1375 26 12.4243L26 2.57563C26 1.86241 25.5723 1.21957 24.9168 0.946696ZM12.3532 8.18413L8.77065 10.9495C8.61785 11.0677 8.43312 11.1281 8.24747 11.1281C8.11823 11.1281 7.98848 11.0989 7.868 11.0392C7.57467 10.894 7.38896 10.5941 7.38896 10.2654L7.38896 4.73452C7.38896 4.40576 7.57467 4.10589 7.868 3.96078C8.16146 3.81548 8.51133 3.85017 8.77059 4.05046L12.3531 6.8158C12.5647 6.97911 12.6887 7.23196 12.6887 7.49994C12.6888 7.76798 12.5648 8.02083 12.3532 8.18413Z" id="Shape" fill="#F45A8C" stroke="none" />
  </g>
</svg>