<?xml version="1.0" encoding="utf-8"?>
<svg width="407px" height="152px" viewBox="0 0 407 152" version="1.1" xmlns:xlink="http://www.w3.org/1999/xlink" xmlns="http://www.w3.org/2000/svg">
  <desc>Created with Lunacy</desc>
  <g id="Group" transform="translate(0.5 0.5)">
    <path d="M0 9L3.13407 0L10 7.06605L0 9Z" transform="translate(396 55)" id="Path-2" fill="#FDC219" fill-rule="evenodd" stroke="none" />
    <path d="M0 10L3.44747 0L11 7.85116L0 10Z" transform="translate(369 1)" id="Path-2-Copy-16" fill="#FA5D71" fill-rule="evenodd" stroke="none" />
    <path d="M0 6L1.88044 0L6 4.7107L0 6Z" transform="translate(0 145)" id="Path-2-Copy-17" fill="#FA5D71" fill-rule="evenodd" stroke="none" />
    <path d="M5.5 11C8.53757 11 11 8.53757 11 5.5C11 2.46243 8.53757 0 5.5 0C2.46243 0 0 2.46243 0 5.5C0 8.53757 2.46243 11 5.5 11Z" transform="translate(335 85)" id="Oval-Copy-45" fill="none" fill-rule="evenodd" stroke="#FDC219" stroke-width="1" />
    <path d="M5.5 11C8.53757 11 11 8.53757 11 5.5C11 2.46243 8.53757 0 5.5 0C2.46243 0 0 2.46243 0 5.5C0 8.53757 2.46243 11 5.5 11Z" transform="translate(17 90)" id="Oval-Copy-46" fill="none" fill-rule="evenodd" stroke="#FDC219" stroke-width="1" />
    <path d="M0 11L3.44747 0L11 8.63628L0 11Z" transform="translate(6 0)" id="Path-2-Copy" fill="#FDC219" fill-rule="evenodd" stroke="none" />
    <path d="M0 11L3.44747 0L11 8.63628L0 11Z" transform="translate(82 49)" id="Path-2-Copy-2" fill="#FDC219" fill-rule="evenodd" stroke="none" />
    <path d="M0 10.6865C0 4.70207 4.675 0 10.625 0L57.375 0C63.325 0 68 4.70207 68 10.6865C68 11.9689 67.15 12.8238 65.875 12.8238C64.6 12.8238 63.75 11.9689 63.75 10.6865C63.75 7.26683 60.775 4.27461 57.375 4.27461L10.625 4.27461C7.225 4.27461 4.25 7.26683 4.25 10.6865L4.25 81.1613L16.4516 81.1613L16.4516 82.8065C16.4516 83.7935 17.329 84.4516 18.6452 84.4516L1.64516 84.4516C0.745906 84.4516 0.119727 83.9055 0.0154019 83.0619C0.0052018 83.1568 0 83.2545 0 83.3548L0 10.6865ZM68 83.3548L68 91.6416C68 97.4423 63.325 102 57.375 102L10.625 102C4.675 102 0 97.4423 0 91.6416L0 83.3548C0 84.5978 0.85 85.4265 2.125 85.4265L4.25 85.4265L4.25 91.6416C4.25 94.9563 7.225 97.8566 10.625 97.8566L57.375 97.8566C60.775 97.8566 63.75 94.9563 63.75 91.6416L63.75 85.4265L65.875 85.4265C67.15 85.4265 68 84.5978 68 83.3548ZM49.3548 84.4516C49.2474 84.4516 49.1428 84.4472 49.0415 84.4386C49.8966 84.342 50.4516 83.713 50.4516 82.8065L50.4516 81.1613L17.5484 81.1613L17.5484 82.8065C17.5484 83.713 18.1034 84.342 18.9585 84.4386C18.8572 84.4472 18.7526 84.4516 18.6452 84.4516L49.3548 84.4516ZM49.3548 84.4516C50.671 84.4516 51.5484 83.7935 51.5484 82.8065L51.5484 81.1613L64.7097 81.1613L64.7097 66.7814C64.7097 65.5384 65.3677 64.7097 66.3548 64.7097C67.3419 64.7097 68 65.5384 68 66.7814L68 83.3548C68 83.2499 67.9953 83.1479 67.9861 83.0492C67.8866 83.9 67.2586 84.4516 66.3548 84.4516L49.3548 84.4516ZM89.1129 49.5605C89.1129 52.9605 86.1059 55.9355 82.6694 55.9355L56.8952 55.9355C53.4586 55.9355 50.4516 52.9605 50.4516 49.5605L50.4516 28.3105C50.4516 24.9105 53.4586 21.9355 56.8952 21.9355L82.6694 21.9355C86.1059 21.9355 89.1129 24.9105 89.1129 28.3105L89.1129 30.0105L98.5634 22.3605C98.993 21.9355 99.8521 21.9355 100.711 22.3605C101.57 22.3605 102 23.2105 102 24.0605L102 53.8105C102 54.6605 101.57 55.5105 100.711 55.5105C100.282 55.5105 100.282 55.9355 99.8521 55.9355C99.4226 55.9355 98.993 55.9355 98.5634 55.5105L89.1129 47.8605L89.1129 49.5605ZM97.7043 49.1355L97.7043 28.7355L88.2538 36.3855C87.8242 36.8105 86.5355 36.8105 86.1059 36.8105C85.2468 36.3855 84.8172 35.5355 84.8172 34.6855L84.8172 28.3105C84.8172 27.0355 83.9581 26.1855 82.6694 26.1855L56.8952 26.1855C55.6065 26.1855 54.7473 27.0355 54.7473 28.3105L54.7473 49.5605C54.7473 50.8355 55.6065 51.6855 56.8952 51.6855L82.6694 51.6855C83.9581 51.6855 84.8172 50.8355 84.8172 49.5605L84.8172 43.1855C84.8172 42.3355 85.2468 41.4855 86.1059 41.4855C86.9651 41.0605 87.8242 41.0605 88.2538 41.9105L97.7043 49.1355ZM34 47.1613C29.1742 47.1613 25.2258 51.1097 25.2258 55.9355C25.2258 60.7613 29.1742 64.7097 34 64.7097C38.8258 64.7097 42.7742 60.7613 42.7742 55.9355C42.7742 51.1097 38.8258 47.1613 34 47.1613ZM34 51.5484C36.6323 51.5484 38.3871 53.3032 38.3871 55.9355C38.3871 58.5677 36.6323 60.3226 34 60.3226C31.3677 60.3226 29.6129 58.5677 29.6129 55.9355C29.6129 53.3032 31.3677 51.5484 34 51.5484ZM28.1734 68C22.2234 68 17.5484 72.4237 17.5484 78.0538L17.5484 80.0645L21.7984 80.0645L21.7984 78.0538C21.7984 74.8366 24.7734 72.0215 28.1734 72.0215L40.9234 72.0215C44.3234 72.0215 47.2984 74.8366 47.2984 78.0538L47.2984 80.0645L51.5484 80.0645L51.5484 78.0538C51.5484 72.4237 46.8734 68 40.9234 68L28.1734 68Z" transform="translate(153 3)" id="Combined-Shape" fill="#F45A8C" fill-rule="evenodd" stroke="none" />
  </g>
</svg>