<?xml version="1.0" encoding="utf-8"?>
<svg width="17px" height="16px" viewBox="0 0 17 16" version="1.1" xmlns:xlink="http://www.w3.org/1999/xlink" xmlns="http://www.w3.org/2000/svg">
  <desc>Created with Lunacy</desc>
  <g id="heart">
    <path d="M15.6269 1.48541C14.7367 0.532433 13.5582 0.0115746 12.3004 0.0115746C11.0426 0.0115746 9.8605 0.536291 8.97032 1.48927L8.50541 1.98698L8.03329 1.48155C7.1431 0.528575 5.95739 0 4.69961 0C3.44542 0 2.26332 0.524717 1.37674 1.47384C0.486557 2.42681 -0.00358424 3.69231 1.97344e-05 5.03882C1.97344e-05 6.38534 0.493765 7.64697 1.38395 8.59995L8.15222 15.8457C8.24592 15.946 8.37206 16 8.49459 16C8.61713 16 8.74327 15.9498 8.83697 15.8495L15.6197 8.61539C16.5098 7.66241 17 6.39691 17 5.0504C17.0036 3.70388 16.517 2.43839 15.6269 1.48541ZM14.9349 7.87847L8.49459 14.7461L2.0687 7.86689C1.36232 7.11068 0.973094 6.10755 0.973094 5.03882C0.973094 3.9701 1.35872 2.96696 2.0651 2.21461C2.76787 1.46226 3.70491 1.04558 4.69961 1.04558C5.69791 1.04558 6.63855 1.46226 7.34493 2.21847L8.15942 3.09043C8.35044 3.29491 8.65677 3.29491 8.84778 3.09043L9.65508 2.22619C10.3615 1.46998 11.3021 1.05329 12.2968 1.05329C13.2915 1.05329 14.2285 1.46998 14.9349 2.22233C15.6413 2.97854 16.0269 3.98167 16.0269 5.0504C16.0305 6.11912 15.6413 7.12226 14.9349 7.87847Z" id="Shape" fill="#05052E" stroke="none" />
  </g>
</svg>