<?xml version="1.0" encoding="utf-8"?>
<svg width="53px" height="53px" viewBox="0 0 53 53" version="1.1" xmlns:xlink="http://www.w3.org/1999/xlink" xmlns="http://www.w3.org/2000/svg">
  <desc>Created with Lunacy</desc>
  <g id="credit-card">
    <path d="M52.6302 19.032L46.709 3.62119C45.5869 0.707924 42.318 -0.743189 39.4077 0.379982C39.3654 0.396324 39.3233 0.413108 39.2814 0.430443L9.69107 12.7089C6.87351 13.8659 5.48873 17.0584 6.56808 19.9091L7.3817 22.083L5.51531 22.083C2.47075 22.0864 0.00341949 24.5562 0 27.6039L0 47.4791C0.00341949 50.5267 2.47075 52.9966 5.51531 53L43.0194 53C46.064 52.9966 48.5313 50.5267 48.5348 47.4791L48.5348 27.6039C48.533 27.3042 48.5064 27.0052 48.4553 26.7099L49.4799 26.2948C52.3226 25.1284 53.7197 21.9075 52.6302 19.032ZM5.51531 23.8498L43.0194 23.8498C45.0001 23.8554 46.634 25.4038 46.7478 27.3831L1.78696 27.3831C1.9008 25.4037 3.53465 23.8553 5.51531 23.8498ZM14.3848 18.5285L20.2831 15.5755L21.4956 18.6115L15.5973 21.5637L14.3848 18.5285ZM46.7699 47.4792C46.7674 49.5516 45.0898 51.231 43.0194 51.2334L5.51531 51.2334C3.44498 51.231 1.76733 49.5516 1.7649 47.4792L1.7649 36.2166L46.7699 36.2166L46.7699 47.4792ZM46.7699 34.4499L1.7649 34.4499L1.7649 29.1498L46.7699 29.1498L46.7699 34.4499ZM48.818 24.6624L47.8959 25.0361C46.9434 23.2226 45.0663 22.0859 43.0194 22.0831L18.5067 22.0831L23.0117 19.8279C23.4224 19.6226 23.6074 19.1364 23.437 18.7096L21.5653 14.0279C21.3843 13.5749 20.8708 13.3545 20.4184 13.5356C20.3955 13.5448 20.3731 13.5548 20.3512 13.5659L12.8689 17.313C12.4584 17.5186 12.2739 18.0048 12.4444 18.4313L13.904 22.0831L9.26573 22.0831L8.22091 19.2935C7.4802 17.3349 8.43159 15.142 10.367 14.3468L39.9565 2.06827C41.9346 1.24721 44.2031 2.18675 45.0235 4.16688C45.0363 4.19768 45.0486 4.22871 45.0606 4.25985L50.9818 19.6707C51.7309 21.6466 50.7713 23.8603 48.818 24.6624Z" id="Shape" fill="#05052E" stroke="none" />
    <path d="M2.65064 9.32265C4.30431 10.2247 6.34633 10.2247 8 9.32265C10.5426 10.7096 13.8014 9.89859 15.2786 7.5113C16.7558 5.124 15.892 2.06433 13.3494 0.67738C12.5333 0.232249 11.606 -0.00125238 10.6622 0.000830593C9.72666 0.00124719 8.80798 0.234644 8 0.67738C5.45737 -0.709567 2.19862 0.101334 0.721426 2.48863C-0.755764 4.87602 0.10801 7.9356 2.65064 9.32265ZM9.48373 1.87061C9.86121 1.74001 10.2599 1.67127 10.6622 1.66731C12.6226 1.66731 14.2118 3.15945 14.2118 5.00007C14.2118 6.84068 12.6226 8.33282 10.6622 8.33282C10.2599 8.32886 9.86121 8.26012 9.48373 8.12952C11.0549 6.3039 11.0549 3.69613 9.48373 1.87061ZM8 2.81878C9.18324 4.06085 9.18324 5.93928 8 7.18135C6.81676 5.93928 6.81676 4.06075 8 2.81878ZM5.3378 1.66731C5.74012 1.67117 6.13879 1.74001 6.51627 1.87061C4.94512 3.69613 4.94512 6.30401 6.51627 8.12952C6.13879 8.26012 5.74012 8.32886 5.3378 8.33282C3.37742 8.33282 1.78819 6.84068 1.78819 5.00007C1.78819 3.15934 3.37742 1.66731 5.3378 1.66731Z" transform="translate(29 40)" id="Shape" fill="#05052E" stroke="none" />
    <path d="M3.36663e-14 8.68474e-15L1.76302 0L1.76302 9.20296L0 9.20296L3.36663e-14 8.68474e-15Z" transform="matrix(-0.40619418 -0.91378677 0.91378677 -0.40619418 37.89966 19.829834)" id="Rectangle" fill="#05052E" fill-rule="evenodd" stroke="none" />
    <path d="M7.42646e-16 7.82578e-16L13.3783 1.25212e-14L13.3783 1.76221L2.59926e-15 1.76221L7.42646e-16 7.82578e-16Z" transform="matrix(0.9079506 -0.4190772 0.4190772 0.9079506 31.56958 16.35498)" id="Rectangle" fill="#05052E" fill-rule="evenodd" stroke="none" />
  </g>
</svg>