<?xml version="1.0" encoding="utf-8"?>
<svg width="74px" height="50px" viewBox="0 0 74 50" version="1.1" xmlns:xlink="http://www.w3.org/1999/xlink" xmlns="http://www.w3.org/2000/svg">
  <desc>Created with Lunacy</desc>
  <g id="BIS-Hallmark-Black">
    <g id="Group_21622">
      <path d="M34.796 11.1083C35.5452 11.1773 36.2355 11.5435 36.7127 12.125L51.646 27.065C54.071 29.49 52.671 31.4067 49.4793 31.1483L34.796 31.1483L43.6043 40.215L62.3627 40.215C68.1043 40.465 72.7043 35.1067 66.9543 29.6133L40.796 3.575C38.6193 1.40667 36.7043 0 34.796 0C32.8877 0 30.9627 1.40833 28.796 3.575L2.6427 29.6167C-3.1073 35.1167 1.4927 40.45 7.23437 40.2183L25.976 40.2183L34.7843 31.1517L20.146 31.1517C16.9543 31.41 15.5544 29.485 17.9793 27.0683L32.9127 12.1283C33.3907 11.5477 34.0805 11.1818 34.8293 11.1117" transform="translate(2.037272 0)" id="Path_26112" fill="#1D1D1B" fill-rule="evenodd" stroke="none" />
      <path d="M5.38417 0C2.40315 0.0114911 -0.00574482 2.43437 1.02907e-05 5.4154C0.00576285 8.39643 2.42398 10.81 5.40504 10.81C8.38607 10.8099 10.8043 8.39637 10.81 5.41533C10.8157 2.4343 8.40679 0.0114568 5.42577 0" transform="translate(31.349207 19.833336)" id="Path_26113" fill="#1D1D1B" fill-rule="evenodd" stroke="none" />
      <path d="M36.7667 8.55L64.2083 8.55C68.6833 8.425 69.8333 7.275 73.5333 2.54313e-06C68.425 4.85 67.275 5.1 64.2083 5.1L9.31667 5.1C6.25833 5.1 5.15 4.85 0 0C3.7 7.275 4.85 8.425 9.31667 8.55L36.7667 8.55L36.7667 8.55Z" transform="translate(0 41.449993)" id="Path_26114" fill="#1D1D1B" fill-rule="evenodd" stroke="none" />
    </g>
  </g>
</svg>