<?xml version="1.0" encoding="utf-8"?>
<svg width="50px" height="50px" viewBox="0 0 50 50" version="1.1" xmlns:xlink="http://www.w3.org/1999/xlink" xmlns="http://www.w3.org/2000/svg">
  <desc>Created with Lunacy</desc>
  <g id="ring">
    <path d="M30.3947 18.7795L3.60925 18.7795C1.61673 18.7775 0.00196598 17.1628 0 15.1703L0 0.713291C0 0.319351 0.319351 0 0.713291 0L33.2907 0C33.6846 0 34.004 0.319351 34.004 0.713291L34.004 15.1703C34.002 17.1628 32.3873 18.7775 30.3947 18.7795ZM1.42658 1.42658L1.42658 15.1703C1.42776 16.3752 2.40428 17.3518 3.60925 17.3529L30.3947 17.3529C31.5997 17.3518 32.5762 16.3752 32.5774 15.1703L32.5774 1.42658L1.42658 1.42658Z" transform="translate(15.92627 31.129395)" id="Shape" fill="#0A0D53" stroke="none" />
    <path d="M16.6396 32.556L16.278 32.556C7.28791 32.556 1.26706e-15 25.2681 0 16.278C-1.10868e-15 7.28791 7.28791 1.58382e-15 16.278 0L16.6396 0C17.0336 0 17.3529 0.319351 17.3529 0.713291L17.3529 31.8427C17.3529 32.2367 17.0336 32.556 16.6396 32.556ZM15.9264 1.43086C7.86536 1.62442 1.43144 8.21469 1.43144 16.278C1.43144 24.3413 7.86536 30.9316 15.9264 31.1251L15.9264 1.43086Z" id="Shape" fill="#0A0D53" stroke="none" />
    <path d="M0.713359 11.315C0.31942 11.315 6.8499e-05 10.9957 6.8499e-05 10.6017C-0.0160667 5.95187 2.8196 1.76745 7.14439 0.0593052C7.38294 -0.0445583 7.65912 -0.0102931 7.86506 0.148717C8.071 0.307728 8.17402 0.566256 8.13388 0.823324C8.09375 1.08039 7.91683 1.29521 7.67222 1.38389C3.89139 2.87754 1.41249 6.53587 1.42665 10.601C1.42684 10.7903 1.35177 10.9719 1.21798 11.1059C1.0842 11.2398 0.902659 11.315 0.713359 11.315L0.713359 11.315Z" transform="translate(21.57837 16.896973)" id="Path" fill="#0A0D53" fill-rule="evenodd" stroke="none" />
    <path d="M7.42908 11.3143C7.03514 11.3143 6.71579 10.995 6.71579 10.601C6.72995 6.53587 4.25105 2.87754 0.470214 1.38389C0.225608 1.29521 0.0486866 1.08039 0.00855289 0.823324C-0.0315808 0.566256 0.0714406 0.307728 0.277378 0.148717C0.483316 -0.0102931 0.759497 -0.0445583 0.998049 0.0593052C5.32283 1.76745 8.1585 5.95187 8.14237 10.6017C8.14197 10.9954 7.82274 11.3143 7.42908 11.3143L7.42908 11.3143Z" transform="translate(36.135742 16.897705)" id="Path" fill="#0A0D53" fill-rule="evenodd" stroke="none" />
    <path d="M6.47815 8.86661C6.08421 8.86661 5.76485 8.54726 5.76485 8.15332C5.76888 4.96777 3.60934 2.18621 0.522168 1.4006C0.148781 1.29666 -0.0732813 0.913588 0.0220892 0.537921C0.11746 0.162255 0.495358 -0.0685101 0.873107 0.0182443C4.59356 0.964584 7.19627 4.31654 7.19144 8.15546C7.19026 8.54857 6.87125 8.86662 6.47815 8.86661Z" transform="translate(34.139404 19.345459)" id="Path" fill="#0A0D53" fill-rule="evenodd" stroke="none" />
    <path d="M0.713296 8.86804C0.319357 8.86804 5.62252e-06 8.54869 5.62252e-06 8.15475C-0.00441521 4.31589 2.59857 0.964243 6.31905 0.0182443C6.6968 -0.0685101 7.07469 0.162255 7.17006 0.537921C7.26544 0.913588 7.04337 1.29666 6.66999 1.4006C3.58188 2.18602 1.42161 4.96834 1.42587 8.15475C1.42587 8.54841 1.10696 8.86765 0.713296 8.86804L0.713296 8.86804Z" transform="translate(24.525879 19.343994)" id="Path" fill="#0A0D53" fill-rule="evenodd" stroke="none" />
    <path d="M6.03234 12.0639C5.86358 12.0638 5.70031 12.0039 5.57155 11.8948C5.02588 11.4326 0.236138 7.28626 0.00788479 4.0358C-0.0590695 2.99867 0.302603 1.97951 1.00835 1.21659C1.7141 0.453677 2.70205 0.0138722 3.74125 0C4.57898 0.0026177 5.38915 0.299521 6.0302 0.83883C6.67125 0.299521 7.48142 0.0026177 8.31915 2.53412e-15C9.35834 0.0136894 10.3464 0.453312 11.0522 1.21609C11.7581 1.97888 12.12 2.99795 12.0532 4.03508C11.8271 7.28555 7.03665 11.4319 6.48956 11.8941C6.36183 12.0027 6.19996 12.0628 6.03234 12.0639L6.03234 12.0639ZM3.74339 1.42729C3.09961 1.44081 2.48921 1.71636 2.05327 2.19027C1.61733 2.66418 1.39358 3.29541 1.43375 3.93808C1.57641 5.96525 4.46952 8.9839 6.03234 10.4012C7.59444 8.98318 10.4911 5.96311 10.6316 3.93808C10.6714 3.29539 10.4474 2.66428 10.0114 2.19045C9.5754 1.71661 8.96505 1.44102 8.32129 1.42729C7.64134 1.43716 7.00351 1.75844 6.59084 2.29894C6.45074 2.46138 6.24685 2.55477 6.03234 2.55477C5.81782 2.55477 5.61394 2.46138 5.47383 2.29894C5.06407 1.75495 4.42441 1.43275 3.74339 1.42729L3.74339 1.42729Z" transform="translate(26.895996 10.516602)" id="Shape" fill="#0A0D53" stroke="none" />
    <path d="M26.0537 5.76838L0.713291 5.76838C0.319351 5.76838 0 5.44903 0 5.05509L0 2.16127C0.00117885 0.968401 0.967688 0.00157261 2.16056 0L24.6085 0C25.8015 0.00157179 26.7682 0.968285 26.7698 2.16127L26.7698 5.05723C26.7692 5.24653 26.6934 5.42784 26.5591 5.56123C26.4248 5.69462 26.243 5.76914 26.0537 5.76838ZM1.42943 4.3418L25.3404 4.3418L25.3404 2.16127C25.34 1.75568 25.0113 1.42697 24.6057 1.42658L2.16341 1.42658C1.96825 1.4262 1.78093 1.50342 1.64273 1.64122C1.50453 1.77902 1.42677 1.96611 1.42658 2.16127L1.42943 4.3418Z" transform="translate(19.54419 26.787598)" id="Shape" fill="#0A0D53" stroke="none" />
  </g>
</svg>